<svg width="152.801" height="70" viewBox="0 0 152.801 70" xmlns="http://www.w3.org/2000/svg"><g id="svgGroup" stroke-linecap="round" fill-rule="evenodd" font-size="9pt" stroke="#ffffff" stroke-width="0.25mm" fill="#ffffff" style="stroke:#ffffff;stroke-width:0.25mm;fill:#ffffff"><path d="M 69.5 70 L 57.7 70 L 42.9 0 L 51.6 0 L 63.5 61.5 L 72.8 18.2 L 82.2 18.2 L 91.6 61.5 L 103.4 0 L 112.1 0 L 97.6 70 L 85.8 70 L 77.6 28.1 L 69.5 70 Z M 122.3 70 L 122.3 63.4 L 133.2 63.4 A 15.013 15.013 0 0 0 136.302 63.101 Q 138.136 62.714 139.504 61.822 A 7.603 7.603 0 0 0 141.45 60 A 12.575 12.575 0 0 0 143.763 54.498 A 17.07 17.07 0 0 0 144 51.6 A 17.706 17.706 0 0 0 143.722 48.388 A 12.927 12.927 0 0 0 142.55 44.85 A 17.582 17.582 0 0 0 140.599 41.801 A 14.704 14.704 0 0 0 139 40.1 A 37.19 37.19 0 0 0 137.379 38.723 Q 135.663 37.341 133.3 35.7 A 78.921 78.921 0 0 1 130.654 33.813 Q 129.414 32.887 128.384 32.027 A 36.604 36.604 0 0 1 127.15 30.95 Q 124.8 28.8 123.2 25.5 A 15.325 15.325 0 0 1 121.952 21.627 Q 121.6 19.756 121.6 17.6 Q 121.6 9.6 126.4 4.8 A 15.818 15.818 0 0 1 134.04 0.627 Q 136.629 0 139.7 0 L 147.8 0 L 147.8 6.6 L 140.1 6.6 A 11.83 11.83 0 0 0 137.135 6.95 A 7.972 7.972 0 0 0 132.8 9.7 Q 130.3 12.8 130.3 16.9 A 11.42 11.42 0 0 0 130.694 19.972 A 8.821 8.821 0 0 0 132.6 23.5 A 23.809 23.809 0 0 0 134.272 25.193 Q 136.23 27.003 139.176 29.1 A 79.516 79.516 0 0 0 139.6 29.4 Q 143.9 32.5 146.5 34.95 A 17.81 17.81 0 0 1 149.051 37.991 Q 150.083 39.525 150.95 41.4 Q 152.688 45.158 152.793 50.328 A 33.036 33.036 0 0 1 152.8 51 A 26.276 26.276 0 0 1 152.251 56.55 Q 151.086 61.938 147.45 65.2 A 17.913 17.913 0 0 1 139.959 69.142 Q 137.237 69.866 134.012 69.979 A 34.558 34.558 0 0 1 132.8 70 L 122.3 70 Z M 22.8 70 L 14 70 L 14 6.6 L 0 6.6 L 0 0 L 36.8 0 L 36.8 6.6 L 22.8 6.6 L 22.8 70 Z" vector-effect="non-scaling-stroke"/></g></svg>